<svg xmlns="http://www.w3.org/2000/svg" id="Layer_1" data-name="Layer 1" viewBox="0 0 404.13 403.78"><defs/><defs><style>.cls-2{fill:#3a549b}.cls-3{fill:#1a9975}.cls-4{fill:#199875}.cls-5{fill:#1a9976}.cls-7{fill:#3a559c}</style></defs><path fill="#3a559b" d="M248 252.16c-8.51-7.69-16.82-15.07-24.93-22.65a5.36 5.36 0 01-1.38-4.43c12.35-44.39 48.44-77.14 95.62-81.29 21.05-1.86 41.09 1.94 60.56 9.59 6 2.37 12 4.91 17.92 7.56 6.94 3.1 10 10.11 7.39 16.37a13.06 13.06 0 01-17 7.09c-6.54-2.46-12.87-5.45-19.41-7.9-28.17-10.5-55.61-10.35-80.92 7.5-21.56 15.23-32.8 37.06-37.07 62.76-.33 1.99-.56 3.96-.78 5.4z"/><path d="M156.57 151.63c6.1 5.83 12.47 12.31 19.27 18.31 7.58 6.68 7.94 6.56 4.33 16.15-15.76 41.9-45.29 67.33-90 73.54-22.75 3.16-44.71-1.25-65.83-10-4.9-2-9.84-4-14.7-6.17C1.5 239.85-1.84 233.16 1 226.4c3-7.19 10.52-9.58 18.92-6.37 10.7 4.09 21.22 9.09 32.29 11.65 45.38 10.47 86.31-14.23 99.64-59.55 2.03-6.93 3.26-14.13 4.72-20.5zM152.81 247.56c7.45-8.48 14.82-17 22.39-25.28a5 5 0 014.31-.88c46.6 14.17 75.84 51.42 79.5 96.09 2.31 28.27-6.25 53.89-17.95 78.85a12.26 12.26 0 01-15.69 6.11 12.55 12.55 0 01-7.45-15.94c2.52-7 5.79-13.8 8.37-20.82 10.65-29 10-57-9.07-82.51-16.05-21.43-38.56-32.03-64.41-35.62zM251.23 156.41c-7.33 8.33-14.81 16.94-22.48 25.38-.7.77-2.72.92-3.9.57C181.26 169.4 151 135 145.68 91c-2.71-22.55 1.1-44.08 9.48-65 2.42-6 4.86-12 7.59-17.9 3-6.55 10.05-9.3 16.24-6.71 6.54 2.73 9.55 9.57 7 16.55-4 10.92-9.19 21.51-12 32.72-11.62 46.8 14 89.11 61.14 102.15 5.48 1.55 11.07 2.5 16.1 3.6z" class="cls-2"/><path d="M193.16 274.69c-9.66 10.45-16.5 20.8-20.17 33-6.38 21.15-4 41.75 4.19 61.94 2.19 5.38 4.58 10.69 6.63 16.13 2.71 7.19-.26 14.36-6.83 17.07s-13.64-.33-16.73-7.45c-8-18.33-15.32-36.81-16.92-57.07-2.09-26.46 3.59-50.85 18.4-73 1.69-2.52 3.35-3.32 6.08-2.07 8.11 3.64 16.24 7.31 25.35 11.45z" class="cls-3"/><path d="M246.52 142.94a70.6 70.6 0 01-26.1-9.5c-1.26-.77-1.59-4.38-1.17-6.44 4.32-21.09 14.4-39.13 29.38-54.55 15.78-16.25 35.23-26.45 56.09-34.4 1.86-.71 3.69-1.5 5.56-2.19 6.79-2.5 13.76.1 16.49 6.14 3 6.64.41 13.9-6.5 17.15-5.41 2.54-11 4.6-16.55 6.92-24.72 10.4-43.67 26.69-52.29 52.84-2.51 7.61-3.28 15.79-4.91 24.03zM259.94 247.21c3.23-8.74 6.41-17.23 9.5-25.76 1-2.75 2.82-2.56 5.19-2.06 34.88 7.24 59.95 27.72 77.14 58.14 6 10.65 10.39 22.26 15.11 33.6a12.24 12.24 0 01-6.72 16.15 12.6 12.6 0 01-16.69-6.69c-3.09-6.8-5.56-13.89-8.74-20.65-12.09-25.77-30.79-43.93-59.3-50.38-4.67-1.06-9.49-1.46-15.49-2.35zM144.2 156.77c-3.3 8.87-6.49 17.36-9.62 25.88-1.07 2.91-3.1 2.17-5.3 1.72-31.59-6.55-55.7-24.19-72.52-51.15-7.93-12.72-13.48-27-19.56-40.79-2.79-6.34.63-13.29 6.57-15.83A12.62 12.62 0 0160.61 83c3 6.47 5.37 13.24 8.31 19.75C80.25 127.73 97.8 146 125 153.33c5.77 1.54 11.76 2.13 19.2 3.44z" class="cls-4"/><path d="M72 170.74c-17.83-.5-33.52 6-49.19 12.54a30 30 0 01-9 2.6c-5.85.45-10.95-3.67-12.57-9.39-1.54-5.41 1-12.19 6.39-14.31 13.43-5.25 27.08-10 40.69-14.75a4 4 0 013.5.62c6.65 7.33 13.18 14.8 20.18 22.69z" class="cls-5"/><path d="M332 233.09c19 .52 35.74-6.87 52.55-14 7.62-3.21 15.12-.24 17.9 6.69 2.7 6.73-.47 13.86-8.13 16.79-12.53 4.79-25.2 9.23-37.89 13.59a5.32 5.32 0 01-4.63-1.06c-6.52-6.97-12.8-14.22-19.8-22.01z" class="cls-3"/><path fill="#3b559c" d="M272 316c13.24 13.82 30.55 20.32 47.55 27.46 7.43 3.11 10.25 10.4 7.26 17.22-2.81 6.43-10.11 9.27-17.28 6.09-12-5.31-23.77-11.06-35.67-16.57-2.94-1.36-3.74-3.1-3.38-6.59.9-8.91 1.01-17.9 1.52-27.61z"/><path d="M132.19 87.75C119 74.1 102 67.4 85 60.54c-7.49-3-10.52-10.13-7.78-17.06 2.61-6.64 10.18-9.68 17.55-6.4 12.14 5.4 24.12 11.16 36.06 17 1.34.65 2.93 2.62 2.89 3.93-.27 9.69-.94 19.42-1.53 29.74z" class="cls-7"/><path d="M234.82 68.18c-.5-17-7.12-32.28-13.36-47.69A22.67 22.67 0 01219.85 10c.56-5.2 5.39-9.11 10.58-9.84S241.23 2 243.18 7c5 12.65 9.63 25.45 14.12 38.3.46 1.3-.55 3.82-1.71 4.86-6.59 6-13.5 11.76-20.77 18.02z" class="cls-5"/><path d="M84.13 273.24c-2.56 3.39-5.93 6.75-8 10.77-5.73 11.05-11 22.32-16.27 33.62-2.17 4.69-5.14 8.2-10.34 9.2-9.64 1.84-17.9-7.35-14.17-16.5 5-12.29 10.9-24.24 16.66-36.21.67-1.39 2.92-2.95 4.37-2.88 9.23.42 18.45 1.28 27.75 2z" class="cls-7"/><path d="M130.16 319.39c.69 9.77 1.43 19 1.88 28.23a4.73 4.73 0 01-2.16 3.68c-12.44 5.85-24.86 11.77-37.54 17.05-6 2.48-12.84-1.27-15.16-7.08A12.6 12.6 0 0183 345.05 122.36 122.36 0 0194.88 340c12.78-4.93 24.8-11.15 35.28-20.61z" class="cls-5"/><path d="M319.74 130.46c12.33-12.89 18.29-29 24.9-44.7 2.66-6.32 6.88-9.12 12.95-8.94 8.18.23 14.52 8.48 11.41 16-5.25 12.69-11.29 25.06-17.19 37.48a4.79 4.79 0 01-3.64 2.33c-9.25-.53-18.48-1.37-28.43-2.17z" class="cls-7"/></svg>