<svg height="50" viewBox="0 0 1527 285"  xmlns="http://www.w3.org/2000/svg" xmlns:xlink="http://www.w3.org/1999/xlink"><mask id="a" fill="#fff"><path d="m125.592334.38375935v76.35197485h-125.21084993v-76.35197485z" fill="#fff" fill-rule="evenodd"/></mask><g fill="none" fill-rule="evenodd" transform="translate(0 -3)"><g transform="translate(.359145 2.398898)"><g fill="#00a57d"><path d="m65.4070737 253.531828 10.146218-4.223665c5.3362014-2.215692 10.3006418-4.806437 14.8876017-7.720304-1.2010743-7.281782-1.5613966-14.453933-1.1324415-21.406823-5.6164521 5.24496-12.4511367 9.589795-20.378227 12.878714l-5.2961656 2.198383-6.3027803 2.613825c-4.2495152 1.7714-6.3942907 6.612458-4.8500523 11.026533.0686328.178871.1315462.421212.1944596.663554 1.7158204 4.212124 6.7431742 6.364346 11.1471132 4.621796.2344955-.12694.4346745-.242341.6462924-.334662.4518327-.161561.6920475-.253881.9379818-.317351"/><path d="m17.4819221 107.042228-5.2904462 2.198383-5.01591498 2.082982c-.05719401.04616-.25165366.155791-.44611331.259651l-.18302084.080781-.19445964.06924c-.22305666.06924-.4289551.132711-.65201176.190411-1.96175466.825115-3.63753925 2.515735-4.52976586 4.673727-.8865072 2.169532-.90938481 4.564096-.0114388 6.739399.02859701.00577.16586264.219261.25737306.450062 1.96175466 4.171734 6.86328161 6.098925 11.11279683 4.333295l11.5932265-4.823748c8.7392452-3.62358 17.4155771-5.28535 25.708709-5.24496-5.5363805-4.673727-10.6094895-10.155258-15.1106583-16.375354-5.770876 1.211707-11.5245937 2.994648-17.2382757 5.366131"/><path d="m27.5309103 33.6985717c-1.1896355-5.3372806-2.8597007-10.7207215-5.0559508-16.1041623l-4.2495152-10.40336963c-.0457552-.0519303-.1544238-.26542153-.2630925-.49622285l-.0686328-.13848079-.0514746-.15579089c-.0800716-.23080133-.1487044-.47314272-.2173372-.70971407-1.7444174-4.26982447-6.8461234-6.41627677-11.30153708-4.56986619-.0057194.0346202-.21733725.14425083-.4232357.24811143-4.15228537 1.98489137-6.06256542 6.93557974-4.2952704 11.22848429l4.75282251 11.6958571c3.28293637 8.0145759 5.01591497 16.0233818 5.25612987 23.8129264 4.5869598-5.2738102 9.9174419-10.1090979 15.9170939-14.4077725" transform="translate(148.704435 .159442)"/><path d="m94.0092279 121.721769c1.0866862-2.619595 1.8988412-5.22765 2.57945-7.818395.3946387-1.477128.7320833-2.954256 1.0008952-4.414075.085791-.484683.1773014-.980905.2402149-1.454048-.8235938-.01154-1.652907-.02885-2.4765008-.086551-5.971055-.403902-11.7934056-1.73101-17.2611533-4.067873-4.346745-1.857951-8.3617647-4.3275248-12.0965338-7.2471615-1.8988412-1.5002086-3.7404885-3.1158178-5.4620283-4.887218-5.8623863-5.943134-10.6952805-13.3576265-14.2527481-22.0934566l-2.1905307-5.3430506-2.5966082-6.3585764c-1.7444174-4.2929046-6.5601534-6.445127-10.9183372-4.887218-.1887402.0634703-.4232357.1269407-.6462923.1904111-4.2495152 1.7656301-6.3599743 6.9124996-4.5412047 11.3958153.0514746.0346202.1658626.2365713.2573731.4558326l.0514746.1442508.0629134.1384808c.0915104.2308013.142985.4558326.2058984.6750939l4.1980406 10.2764288c2.3735516 5.8161934 5.1932164 11.2054042 8.3846424 16.1387825.8350326 1.3097975 1.7043816 2.5734348 2.6023276 3.8255319.95514 1.3328777 1.9503158 2.6426752 2.9855275 3.9120824 12.3882233 15.348288 28.8486603 25.047714 46.8132999 27.87503 1.0466505-1.898341 2.0189487-3.854382 2.8768589-5.931594z"/><path d="m210.491127 25.7863146-10.151937 4.2236642c-5.336201 2.2156927-10.294922 4.8064375-14.881882 7.7203042-1.298304.8193447-2.573731 1.6733096-3.82628 2.5618947-1.309743.9289753-2.57945 1.8925708-3.837718 2.8907865-8.127269 6.4624371-14.738897 14.0673407-19.628985 22.4569687-2.596609 4.4660056-4.707068 9.1512725-6.314219 14.0038703-1.321182 3.9640127-2.264883 8.0491961-2.876859 12.21516 2.270602 1.3271076 4.667031 2.5907448 7.223604 3.663971l.428955.184641c2.419306 1.0039858 4.86721 1.7944803 7.297956 2.4638041 1.469886.3981323 2.951211.7443343 4.415378 1.0155258.177301.0403903.366041.0692404.549062.1096307 0-.3346619.022878-.6462437.045755-.9693656.068633-3.3408491.394639-6.641308 1.040931-9.8494464.697767-3.4620199 1.698663-6.8432592 3.071319-10.1090979.85791-2.0714419 1.904561-4.0505632 2.996966-5.9892944 1.687224-2.9484869 3.63182-5.7411829 5.839509-8.3434678 1.447008-1.7079298 3.019844-3.3350791 4.695628-4.892988 5.627891-5.23919 12.462576-9.5840249 20.389666-12.8787138l11.587507-4.8179776c4.266674-1.7714002 6.40001-6.6124579 4.861491-11.0207632-.062913-.178871-.131546-.4269824-.18302-.6693238-1.738698-4.2063541-6.731736-6.3528064-11.135675-4.6333365-.234495.1384808-.428955.2423414-.652012.3462019-.47471.1904111-.720644.2538815-.95514.3173519"/><path d="m258.409988 172.275337 5.290446-2.198383 5.027354-2.082982c.045755-.05193.228776-.14425.417516-.236571l.223057-.103861.794996-.242341c1.996072-.848195 3.660417-2.521504 4.575522-4.696807.875068-2.175302.892226-4.558326 0-6.727858-.017159.00577-.125827-.190411-.234496-.403903-1.978913-4.217894-6.87472-6.145085-11.141394-4.373685l-11.587507 4.812208c-8.796439 3.663971-17.535684 5.32574-25.89173 5.23919 5.63933 4.731427 10.746755 10.230268 15.242205 16.398434 5.719401-1.200167 11.495997-2.971567 17.284031-5.383441"/><path d="m29.6957037 6.86518534c-2.2934799-1.35595777-4.6727509-2.59651488-7.2293233-3.67551106l-.4232357-.19041109c-2.4250262-1.00975579-4.8500523-1.78871025-7.2922367-2.45803409-2.2763217 3.07542762-4.289551 6.30087611-6.05684603 9.6936555-2.62520521 5.0833992-4.65559268 10.46107-6.06828482 16.1041623-2.29919933 9.1974327-2.92261408 19.0526492-1.76157561 29.1963673.17730144 1.575219.4003581 3.1562081.66345056 4.7602773.26881186 1.5117487.56622073 3.0292674.89794601 4.5640961 1.18963548 5.3315106 2.85970067 10.7207215 5.05023138 16.0983923l4.25523461 10.4206797c.0514746.0346202.1773014.2538815.2688118.4789127l.0571941.1327108.0629134.1500209c.0915104.2365713.1601432.4789127.228776.7212541 1.7329786 4.2582844 6.8346846 6.4105067 11.2900983 4.5640961l.3774805-.2308013c4.1980405-2.0022014 6.1083206-6.9413497 4.3524644-11.2515644l-4.7757001-11.690087c-3.2657782-8.026116-5.0044762-16.0349219-5.2446911-23.8071564-.057194-2.3830237.0114388-4.7314272.2287761-7.0567505.3202865-3.5081801.95514-6.9528898 1.9159994-10.3168191.5719402-1.9791213 1.2296713-3.9293925 2.0189487-5.8392735 1.1781967-2.8619364 2.665241-5.5565418 4.3009898-8.1588267 1.853086-2.9254068 3.9692645-5.6719425 6.3542549-8.2165271.3317253-.357742.640573-.7212541.9894564-1.050146-.228776-.17310099-.4632715-.35197202-.7034863-.51930298-1.2067937-.85396489-2.4536232-1.66176952-3.7576467-2.42341388" transform="translate(97.229823 180.611304)"/><path d="m231.750714 179.111672c-7.990003-9.889837-17.775899-17.598601-28.814344-22.520439-5.816631-2.579205-11.862038-4.350605-18.027553-5.3142-1.018053 1.88103-1.984632 3.825532-2.836823 5.885433l-.171582.432753c-1.098125 2.636905-1.91028 5.22765-2.596608 7.812625-.388919 1.482898-.726364 2.960027-.995176 4.419845-.09151.484683-.177301.957825-.240215 1.425198.829313.01731 1.641468.0577 2.476501.109631 10.712439.750104 20.715672 4.650646 29.226141 11.309265 1.938877 1.511748 3.797682 3.161978 5.564977 4.956458 5.816631 5.896974 10.70672 13.271076 14.287065 22.041526l2.179092 5.331511 2.585169 6.364346c1.767295 4.298675 6.565873 6.445127 10.935496 4.892988.18302-.0577.388919-.12117.594817-.178871 4.346745-1.898341 6.40573-6.98174 4.59268-11.413125-.045756-.02885-.160144-.236572-.251654-.450063l-.068633-.155791-.045755-.12694c-.09723-.236572-.154424-.467373-.223057-.703944l-4.180882-10.253349c-2.344955-5.746953-5.16462-11.124624-8.384643-16.104162-.846471-1.315568-1.721539-2.584975-2.630924-3.848612-.96086-1.338648-1.956035-2.648446-2.974089-3.912083"/></g><path d="m90.7806258 61.5074352c-.6234147-7.2413914-.3831999-14.7482045.8007162-22.347338-4.8958076-3.2196785-10.203412-6.0816149-15.9514103-8.4992587l-10.3006419-4.3275248c-.0629134.00577-.2802506-.0634704-.4975879-.1442508l-.3603223-.1500209c-.200179-.0923205-.3889192-.2019511-.5776595-.3173518-1.9789129-.8251147-4.3524644-.8308848-6.5029593.0634704-2.1504949.8943551-3.8377183 2.5792047-4.7242255 4.7429671.0114388.0346202-.0457552.2596515-.1315462.4904528-1.5442384 4.362145.5719401 9.2205129 4.8271747 11.0092231l11.5646295 4.8583679c8.7335258 3.669741 16.0200431 8.6838997 21.8538325 14.6212637" fill="#2355a6"/><path d="m120.47347 135.245573c.028597-.075011.062913-.144251.09723-.207721.263092-.611624.537623-1.200167.789277-1.811791l.177301-.444292c.331726-.790495.634854-1.586759.926543-2.377254.017159-.06347.045756-.126941.068633-.190411.57194-1.540599 1.103845-3.069658 1.584274-4.610256.417517-1.280948.760681-2.567665 1.098126-3.848613-6.045408-4.258284-11.347293-9.151272-15.888497-14.598183-.949421-1.136697-1.853086-2.284933-2.745313-3.46779-.062913 1.315567-.142985 2.631135-.303128 3.964013-.125827.975135-.314567 1.950271-.48043 2.936946-.268812 1.540599-.594818 3.086968-.989456 4.639107-.377481 1.529059-.794997 3.040807-1.281146 4.564096-.554782 1.7137-1.1496 3.43317-1.864525 5.15264l-.171582.426982c-.503308 1.229017-1.080967 2.383024-1.6471878 3.5428-.6748894 1.396348-1.3840952 2.746536-2.1390561 4.062104-.8064356 1.425198-1.6300294 2.815776-2.522256 4.137113-.611976.928976-1.2639877 1.823331-1.9159995 2.700376-.5433431.721254-1.098125 1.407888-1.6471876 2.094522-.371761.415442-.7435221.842425-1.1038444 1.257867-.926543 1.055916-1.8645249 2.088752-2.8711395 3.075428-.1830208.190411-.3774805.369282-.5719401.553923-2.3849904 2.296473-4.9129658 4.379455-7.6125232 6.191245-2.8368231 1.898341-5.8395088 3.554341-8.9966183 4.864138-2.1848113.911666-4.4268166 1.61561-6.6916996 2.221463-3.2429005.865505-6.5429951 1.471358-9.9231613 1.73101-2.1619337.167331-4.3925002.196181-6.6230667.098091-7.6697172-.305812-15.6025269-2.100293-23.5467754-5.441142l-11.5703489-4.852597c-4.12368833-1.73678-9.22539433.242341-11.16427138 4.321754-.07435222.173101-.20589845.398133-.33172528.611624-1.7444174 4.264054.36032229 9.416694 4.79857773 11.286184.028597-.02308.28597006.057701.52618492.150021.45755211.201951.68632816.328892.90938481.467373l10.1290598 4.240974c5.2847268 2.221463 10.6266477 3.935163 15.9628491 5.15264 1.4870444.328892 2.9740887.646244 4.4782913.905895 1.5671159.288502 3.1513901.513533 4.7127867.692404 10.2262896 1.223247 20.2752777.571233 29.7752033-1.944501 3.1456708-.836655 6.2341475-1.857951 9.2311138-3.098508l.0114388-.00577c1.5613966-.652014 3.0941961-1.379038 4.6041181-2.134912 3.8663153-1.932961 7.5496097-4.200584 10.9812505-6.779789 1.2067937-.917435 2.3849904-1.875261 3.5403092-2.850396 1.138161-.975136 2.242006-1.996432 3.328692-3.035038 2.842542-2.775386 5.502064-5.781573 7.921371-9.007021.932262-1.252098 1.824489-2.509965 2.688118-3.825532.812155-1.240557 1.595713-2.509965 2.350674-3.796682.623415-1.084766 1.206794-2.181073 1.795892-3.294689.743522-1.448278 1.452728-2.931177 2.116179-4.419845" fill="#2355a6"/><path d="m230.795002 70.4129043c-3.322972 8.0607362-7.73263 15.0020859-13.074551 20.6913385 7.029144-.4846827 14.224151-.1269407 21.436316 1.0905363 2.922614-4.6621867 5.524942-9.6821155 7.73835-15.0251661l4.289551-10.3918296c0-.0750104.062913-.3115817.154424-.5539231.217337-.4904528.337444-.7097141.468991-.9289754 1.744417-4.2698244-.366042-9.4224639-4.787139-11.2977247l-.00572.00577c-.034316.0057701-.251653-.0577003-.47471-.1327107-4.152285-1.4944386-9.202517.703944-10.918337 4.8756779z" fill="#2355a6"/><path d="m130.75295 115.40993c1.235391.848195 2.510817 1.68485 3.809121 2.475344 1.155319.692404 2.339235 1.373268 3.551748 2.019512 1.309743.698174 2.653803 1.367498 4.020739 2.013741.188741.080781.377481.167331.566221.253882.817875.380822 1.664346.773184 2.527976 1.130926l.446113.190411c.434674.184641.880788.346202 1.315462.519303.160143.069241.354603.138481.531905.207722 1.42413.559693 2.8597 1.073226 4.300989 1.546368 1.218233.403903 2.442185.755875 3.671856 1.102077 4.135127-6.098925 8.973741-11.545836 14.42433-16.259953.937982-.813575 1.898841-1.60407 2.876859-2.365714-1.103844-.109631-2.207689-.219261-3.322972-.363512-.726364-.109631-1.481325-.248111-2.219128-.380822-1.584274-.288502-3.174268-.634704-4.752822-1.055916-1.481325-.380822-2.96837-.796265-4.449695-1.298258-1.544238-.530843-3.082757-1.055916-4.621276-1.7137l-.411797-.16733c-1.664346-.703945-3.24862-1.482899-4.827175-2.296474-1.384095-.703944-2.716715-1.4944382-4.015019-2.2849327-1.418412-.8539649-2.785349-1.7714002-4.11225-2.7349957-.634853-.4616027-1.292585-.9116652-1.91028-1.390578-1.000895-.7962645-1.961755-1.6329193-2.905456-2.4811142-.108668-.0980906-.228776-.2077212-.337444-.3058117-1.063809-.9578255-2.076143-1.9445012-3.048441-2.960027-.617696-.6577838-1.229672-1.2867174-1.813051-1.9560412-3.929228-4.5525561-7.120654-9.6417253-9.345501-15.180957-1.784454-4.4140753-2.894017-9.0416418-3.483116-13.7615289-.291689-2.452264-.457552-4.9391483-.428955-7.4491126.028597-8.372318 1.81877-17.0158275 5.404834-25.7054973l4.804298-11.6727769c1.778733-4.29290462-.10295-9.24359299-4.278113-11.25733452-.18874-.0865505-.388919-.20195116-.589098-.32889189-1.956035-.81357466-4.323867-.81934469-6.474362.0692404-2.161934.90012516-3.831999 2.59074484-4.724226 4.76604731 0 .04039023-.057194.27696158-.148704.50199287-.217338.49622285-.331726.70971407-.463272.92320529l-4.215199 10.23603864c-2.396429 5.8104233-4.169443 11.6093065-5.381956 17.3447194-.314567 1.5405988-.589099 3.0754276-.8407522 4.6044864-.2573731 1.6386894-.4632715 3.2773788-.6348536 4.892988-1.9903516 19.6585027 2.8368228 38.209159 13.4977868 53.0035237.886508 1.2290171 1.807331 2.4234136 2.768191 3.5889606.94942 1.165547 1.956035 2.313783 2.979808 3.42163 2.596608 2.775386 5.421992 5.36613 8.470433 7.772234 1.235391.952056 2.48222 1.886801 3.786244 2.786926" fill="#2355a6"/><path d="m120.340208 12.659517c-.234496-.0634704-.451833-.1154007-.663451-.2019511-.48043-.2077212-.697767-.3231219-.892226-.4442926l-10.174815-4.28136453c-5.279008-2.21569269-10.6152093-3.92362248-15.9456913-5.14109946-1.5042026-.34620198-3.0026857-.64047367-4.4840107-.90589519-1.5728354-.28850165-3.1399513-.51353294-4.7127867-.70394403-10.2148508-1.22324701-20.2924359-.56546324-29.798081 1.95604121-3.1342319.82511473-6.2112698 1.85795064-9.2139555 3.09850775-1.5728354.65778377-3.0999155 1.37326787-4.6212763 2.14068227-3.8434377 1.93296108-7.5267322 4.19481408-10.9755312 6.77978888-1.2182325.9174352-2.3678321 1.8637206-3.5403094 2.8503963-1.1381609.9809056-2.2477247 1.9906614-3.3115334 3.0292674-2.8597006 2.7811559-5.5077835 5.7758031-7.9328096 9.0127916-.926543 1.2463271-1.8416473 2.5041943-2.6995575 3.8139919-.8178743 1.2463271-1.58427413 2.5157344-2.35067391 3.8197618-.61769534 1.0847663-1.21251308 2.1637624-1.78445322 3.2716088-.75496097 1.4598184-1.46416674 2.9484869-2.1447755 4.4833157-.0171582.0519303-.04575521.0980905-.07435222.1500208-.25737306.6173936-.53762372 1.2059369-.79499678 1.8175605l-.17158204.4327524c-.33172528.7847245-.61769535 1.5867591-.92082362 2.3772537-.028597.0865504-.05147461.1557908-.09151042.2423413-.57194013 1.5175187-1.10384446 3.0523475-1.57855477 4.5756363-.39463869 1.2809473-.75496097 2.5561246-1.08096685 3.842842 6.02824901 4.2409743 11.32441463 9.1455024 15.86561933 14.5635634.9494206 1.1482366 1.8759636 2.3080133 2.7624708 3.4966401.0686328-1.3097975.1544239-2.6369051.3145671-3.9697828.1201074-.9347453.2916895-1.8694907.4575521-2.8157761.2745313-1.575219.5948177-3.1619781 1.0008952-4.7545073.3660417-1.5059786.783558-3.0177273 1.2697071-4.5352459.5662208-1.7194699 1.1495997-3.4504798 1.8645249-5.1757197l.1773014-.4385225c.4975879-1.1943969 1.0638087-2.3137833 1.62431-3.4677899.6806088-1.4194281 1.3955339-2.792696 2.1676531-4.1371137.7606804-1.3617278 1.567116-2.7061455 2.4193068-3.9870928.6634505-.9809057 1.3440593-1.9271911 2.024668-2.8503964.5490626-.7154841 1.0981251-1.407888 1.652907-2.0829819.3488835-.4327525.726364-.8424248 1.0981251-1.2578672.9208236-1.0732262 1.8645248-2.100292 2.8654201-3.0811977.1944596-.1961811.3889193-.3692821.5719401-.5481531 2.3735515-2.3022432 4.9015269-4.3794551 7.6068038-6.1970155 2.8425424-1.8925709 5.8395087-3.5543404 8.9908989-4.8641379 2.1905307-.9058952 4.4382554-1.6213793 6.7088577-2.2156927 3.2314618-.877045 6.5315564-1.4828985 9.9002838-1.74255 2.1905307-.1615609 4.4096584-.184641 6.6345055-.0980905 7.6868754.3058117 15.6082463 2.106062 23.5467751 5.4526812l11.576069 4.8468278c4.117968 1.7367799 9.213955-.2365714 11.158552-4.3217548.080071-.173101.194459-.3981323.348883-.6173935 1.71582-4.2063541-.337445-9.2839832-4.649873-11.2169443" fill="#2355a6" mask="url(#a)" transform="translate(150.305867 98.896031)"/><path d="m185.117575 217.802629c.634854 7.252931.3832 14.748204-.800716 22.370418 4.884369 3.208138 10.197693 6.070075 15.945691 8.493489l10.300642 4.327524c.074352-.01154.268812.057701.48043.121171l.3832.178871c.200179.086551.388919.190411.57194.305812 1.978913.830885 4.352464.836655 6.508678-.06924 2.144776-.882816 3.82628-2.567665 4.735665-4.742968-.028597-.02308.034316-.259651.114388-.467372 1.549957-4.385225-.560502-9.243593-4.821456-11.032304l-11.564629-4.846827c-8.727807-3.669741-16.020043-8.68967-21.853833-14.638574" fill="#2355a6"/><path d="m24.7129612 212.539205c0 .06924-.0743522.323122-.1601432.565463-.2230566.484683-.3317253.715484-.4689909.940515-1.7558562 4.252515.3603223 9.410924 4.7928583 11.274645.0228776-.01731.2287761.04039.4346745.121171 4.2437958 1.517518 9.2425526-.692404 10.9698118-4.864138l4.8214553-11.661237c3.3115334-8.072276 7.7211918-15.013626 13.0859903-20.702879-7.0520219.490453-14.2241512.132711-21.447755-1.073226-2.9340529 4.650647-5.5306611 9.664805-7.7326307 15.007856z" fill="#2355a6"/><path d="m108.654899 171.822966c1.578555.288502 3.15139.634704 4.729945 1.050146 1.498483.386593 2.974088.796265 4.449694 1.315568 1.555677.513533 3.094196 1.050146 4.621276 1.69062l.428955.173101c1.670066.698174 3.25434 1.488668 4.821456 2.284933 1.378375.715484 2.693838 1.511748 4.015019 2.296473 1.418412.877045 2.77391 1.79448 4.11225 2.746536.629134.450062 1.292585.900125 1.91028 1.384808 1.046651.825114 2.036107 1.707929 3.019844 2.579204.074352.069241.154424.150021.223057.213492 1.058089.946285 2.076142 1.944501 3.048441 2.960026.617695.640474 1.229671 1.286718 1.80733 1.944502 3.940668 4.552556 7.126374 9.635955 9.345502 15.192497 1.778734 4.414075 2.882578 9.030101 3.471677 13.755758.303128 2.411874.457552 4.864138.446113 7.351023-.022878 8.395398-1.795892 17.079297-5.399115 25.797817l-4.821455 11.678547c-1.778734 4.292905.108669 9.237823 4.289551 11.263105.183021.07501.3832.201951.606256.317352 1.927439.825114 4.30671.825114 6.457205-.069241 2.156214-.894355 3.831998-2.584975 4.724225-4.754507-.005719-.05193.062913-.282732.142985-.507763.228776-.490453.331725-.715484.451833-.928975l4.226637-10.230269c2.407868-5.816193 4.186602-11.632386 5.387676-17.390879.308848-1.529059.594818-3.040808.835033-4.564097.263092-1.632919.463272-3.254298.646292-4.887218 1.984633-19.658502-2.836823-38.214929-13.509226-53.015063-.869349-1.211707-1.801611-2.417644-2.76247-3.577421-.96086-1.165547-1.950316-2.313783-2.979809-3.410089-2.596608-2.781156-5.416273-5.371901-8.476152-7.778005-1.223952-.963595-2.48222-1.898341-3.780525-2.792696-1.212513-.842425-2.48222-1.661769-3.774804-2.440724-1.161039-.715484-2.356394-1.396348-3.574626-2.048362-1.304024-.703944-2.6824-1.367498-4.037898-2.013741-.171582-.092321-.366041-.173101-.56622-.253882-.835033-.386592-1.658627-.778954-2.527976-1.136696l-.411797-.178871c-.440394-.178871-.909384-.346202-1.344059-.530843-.18874-.069241-.348883-.138481-.537624-.201951-1.42985-.571234-2.8597-1.090537-4.30099-1.552139-1.223951-.398133-2.430745-.761645-3.666136-1.107847-4.123688 6.093155-8.97374 11.557377-14.430049 16.254183-.920824.819345-1.898842 1.60407-2.87114 2.377254 1.098125.103861 2.207689.207721 3.322972.369282.732084.098091 1.475606.242342 2.230567.375052" fill="#2355a6"/></g><path d="m362.390524 167.07444h-28.198793c-7.690579 0-13.885769-6.19519-13.885769-13.672142v-122.4083973c0-7.4769527 6.19519-13.672142 13.885769-13.672142h28.198793c35.034865 0 58.747486 23.2853669 58.747486 58.1066038v33.5394735c0 34.821237-23.712621 58.106604-58.747486 58.106604zm36.103001-57.67935v-34.393982c0-22.6444853-13.031261-36.1030001-35.889373-36.1030001h-19.653705v106.5999831h19.653705c22.858112 0 35.889373-13.672142 35.889373-36.103001zm125.185551 57.67935h-63.447285c-7.263325 0-13.885769-5.981562-13.885769-13.672142v-122.4083973c0-7.2633254 6.195189-13.672142 13.885769-13.672142h61.951894c6.195189 0 11.108615 4.913426 11.108615 11.1086154 0 5.9815622-4.913426 10.4677338-11.108615 10.4677338h-53.193178v39.7346629h50.416024c6.195189 0 11.108616 4.6997988 11.108616 10.8949882 0 5.9815622-4.913427 10.681361-11.108616 10.681361h-50.416024v45.288971h54.688569c5.981562 0 11.108615 4.699798 11.108615 10.681361 0 6.195189-5.127053 10.894988-11.108615 10.894988zm140.993965-9.185971v-93.3550947l-32.044083 58.1066037c-2.136273 3.84529-6.408817 6.408817-10.894989 6.408817-4.699798 0-8.758716-2.563527-10.894988-6.408817l-32.044083-58.1066037v93.3550947c0 6.19519-5.34068 11.322243-11.322242 11.322243-6.19519 0-11.322243-5.127053-11.322243-11.322243v-130.3126038c0-6.836071 5.767935-12.3903787 12.390379-12.3903787 4.913426 0 8.972343 2.7771538 11.108615 6.6224438l42.084562 75.1967814 42.084563-75.1967814c2.136272-3.84529 6.622444-6.6224438 11.108615-6.6224438 6.836071 0 12.390379 5.5543077 12.390379 12.3903787v130.3126038c0 6.19519-5.340681 11.322243-11.53587 11.322243-5.981562 0-11.108615-5.127053-11.108615-11.322243zm152.743462-90.1506864v48.9206334c0 31.403201-21.149095 52.552296-52.338669 52.552296-31.403201 0-52.552296-21.149095-52.552296-52.552296v-48.9206334c0-31.4032014 21.149095-52.5522961 52.552296-52.5522961 31.189574 0 52.338669 21.1490947 52.338669 52.5522961zm-22.644485 50.2023964v-51.4841597c0-19.0128226-10.681361-30.3350653-29.694184-30.3350653s-29.907811 11.3222427-29.907811 30.3350653v51.4841597c0 19.012823 10.894988 30.335065 29.907811 30.335065s29.694184-11.322242 29.694184-30.335065zm44.007207-4.058917v-43.3663256c0-33.1122191 22.217231-55.3294499 55.115823-55.3294499 11.53587 0 22.644485 3.4180355 32.898592 10.0404793 3.204408 2.1362722 5.127053 5.5543077 5.127053 9.1859705 0 5.7679349-4.913426 10.4677337-11.108616 10.4677337-1.922645 0-3.84529-.6408816-5.767935-1.7090177-6.836071-4.2725444-13.885769-7.0496983-21.149094-7.0496983-20.721841 0-32.471338 13.6721421-32.471338 34.3939824v43.3663256c0 20.72184 11.749497 34.393982 32.471338 34.393982 7.263325 0 14.099396-2.990781 20.935467-7.263325 1.922645-1.281763 4.058917-1.922645 6.19519-1.922645 5.767935 0 10.894988 4.486172 10.894988 10.681361 0 3.631663-1.922645 7.263325-5.127053 9.399598-10.254107 6.622444-21.362722 10.040479-32.898592 10.040479-32.898592 0-55.115823-22.217231-55.115823-55.32945zm190.982735 49.98877-35.675746-59.601995h-19.22645v53.83406c0 6.195189-5.340681 11.108615-11.322243 11.108615-6.195189 0-11.322242-4.913426-11.322242-11.108615v-127.1081963c0-7.4769527 6.195189-13.672142 13.885769-13.672142h39.734662c12.60401 0 23.499 4.0589172 31.4032 11.9631243 8.11784 8.1178343 12.39038 19.2264498 12.39038 32.044083s-4.27254 23.7126214-12.17675 31.4032013c-5.12705 4.9134261-11.32224 8.1178347-18.58557 10.0404797l29.69418 49.775142c1.06814 1.709018 1.70902 3.84529 1.70902 5.767935 0 5.554308-5.12705 10.894988-11.10861 10.894988-3.84529 0-7.47696-1.922645-9.3996-5.34068zm-54.902196-81.178344h30.975946c9.82685 0 21.1491-4.0589172 21.1491-21.362722 0-12.8176332-7.47696-22.4308581-21.1491-22.4308581h-30.975946zm181.369506 79.255699-11.53587-32.471338h-52.55229l-11.7495 32.471338c-1.70902 4.486171-5.76793 7.263325-10.46773 7.263325-5.76794 0-10.89499-4.913426-10.89499-11.108615 0-1.281764.21363-2.3499.64088-3.631663l46.99799-131.1671132c1.70902-4.4861716 6.40882-8.1178343 11.7495-8.1178343 4.91342 0 10.04048 3.4180355 11.74949 8.3314615l46.99799 130.953486c.42726 1.068136.64088 2.563526.64088 3.631663 0 5.767935-4.6998 11.108615-11.10861 11.108615-4.48617 0-8.75872-2.777154-10.46774-7.263325zm-19.22645-54.047687-18.58556-51.6977873-18.58557 51.6977873zm137.36231 54.902195-56.39759-98.9094024v94.2096044c0 6.195189-5.12705 11.108615-11.10862 11.108615-6.19518 0-11.53587-4.913426-11.53587-11.108615v-130.5262318c0-6.836071 5.98157-12.3903787 12.39038-12.3903787 4.6998 0 8.75872 2.3498994 10.89499 6.1951894l56.18396 99.1230301v-94.2096041c0-6.1951894 5.34068-11.1086154 11.53587-11.1086154 5.98156 0 11.10862 4.913426 11.10862 11.1086154v130.5262311c0 7.049699-5.98157 12.390379-12.39038 12.390379-4.6998 0-8.54509-2.777154-10.68136-6.408817zm48.27975-48.920633v-43.3663256c0-33.1122191 22.21723-55.3294499 55.11582-55.3294499 11.53587 0 22.64449 3.4180355 32.89859 10.0404793 3.20441 2.1362722 5.12706 5.5543077 5.12706 9.1859705 0 5.7679349-4.91343 10.4677337-11.10862 10.4677337-1.92264 0-3.84529-.6408816-5.76793-1.7090177-6.83608-4.2725444-13.88577-7.0496983-21.1491-7.0496983-20.72184 0-32.47134 13.6721421-32.47134 34.3939824v43.3663256c0 20.72184 11.7495 34.393982 32.47134 34.393982 7.26333 0 14.0994-2.990781 20.93547-7.263325 1.92264-1.281763 4.05892-1.922645 6.19519-1.922645 5.76793 0 10.89499 4.486172 10.89499 10.681361 0 3.631663-1.92265 7.263325-5.12706 9.399598-10.2541 6.622444-21.36272 10.040479-32.89859 10.040479-32.89859 0-55.11582-22.217231-55.11582-55.32945zm190.76911 53.193178h-63.44729c-7.26332 0-13.88577-5.981562-13.88577-13.672142v-122.4083973c0-7.2633254 6.19519-13.672142 13.88577-13.672142h61.95189c6.19519 0 11.10862 4.913426 11.10862 11.1086154 0 5.9815622-4.91343 10.4677338-11.10862 10.4677338h-53.19317v39.7346629h50.41602c6.19519 0 11.10862 4.6997988 11.10862 10.8949882 0 5.9815622-4.91343 10.681361-11.10862 10.681361h-50.41602v45.288971h54.68857c5.98156 0 11.10861 4.699798 11.10861 10.681361 0 6.195189-5.12705 10.894988-11.10861 10.894988z" fill="#2355a6"/><path d="m1110.14137 258.907015v-65.69037c0-3.097595 2.56352-5.661122 5.66112-5.661122 2.99078 0 5.66112 2.563527 5.66112 5.661122v65.69037c0 3.097594-2.67034 5.661121-5.66112 5.661121-3.0976 0-5.66112-2.563527-5.66112-5.661121zm57.14528.106813v-30.228251c0-6.51563-3.84529-10.36092-10.46774-10.36092-3.52484 0-7.04969.534068-10.36092 1.388577v39.200594c0 3.097595-2.45671 5.554308-5.44749 5.554308-3.09759 0-5.55431-2.456713-5.55431-5.554308v-41.44368c0-2.990781 1.81583-5.554308 4.6998-6.51563 5.23387-1.815832 10.89499-2.777154 16.66292-2.777154 6.30201 0 11.64269 2.029458 15.48798 5.981562 3.84529 3.84529 5.98156 9.18597 5.98156 15.38116v29.373742c0 3.097595-2.45671 5.554308-5.55431 5.554308-3.09759 0-5.44749-2.456713-5.44749-5.554308zm40.8028-16.769736-8.75872-3.204409c-5.76793-2.136272-10.2541-6.622443-10.2541-14.633464 0-9.399598 7.79739-16.128855 18.47875-16.128855 7.26333 0 11.0018 1.068136 14.52665 2.67034 2.13627.854509 3.52485 2.777154 3.52485 5.02024 0 2.777153-2.24309 5.127053-5.12705 5.127053-.7477 0-1.81583-.213627-2.56353-.534068-2.67034-1.281764-7.0497-2.136272-10.57455-2.136272-4.37936 0-7.26332 2.136272-7.26332 5.767935 0 2.777153 2.13627 4.486171 4.37935 5.233866l10.46774 3.418036c7.0497 2.349899 11.32224 7.156512 11.32224 14.953905 0 9.399598-7.58376 16.769737-19.01282 16.769737-6.302 0-11.42906-1.17495-15.38116-2.990781-2.02946-.961322-3.31122-2.777154-3.31122-4.913426 0-2.777154 2.3499-5.340681 5.34068-5.340681.74769 0 1.70902.320441 2.45671.640882 2.88397 1.495391 6.40882 2.456713 11.10862 2.456713 5.12705 0 7.79739-1.922645 7.79739-5.554308 0-3.952103-3.20441-5.233866-7.15651-6.622443zm60.67013 10.788174v-39.200595c0-3.097594 2.3499-5.554307 5.44749-5.554307 3.0976 0 5.55431 2.456713 5.55431 5.554307v41.443681c0 2.990781-1.92265 5.554308-4.6998 6.51563-5.23387 1.815832-10.89499 2.777154-16.76974 2.777154-6.19519 0-11.74949-1.815831-15.7016-5.767935-3.84529-3.84529-5.66112-9.399598-5.66112-15.701601v-29.266929c0-3.097594 2.45672-5.554307 5.55431-5.554307 2.99078 0 5.44749 2.456713 5.44749 5.554307v30.121438c0 6.622444 3.84529 10.360921 10.36092 10.360921 3.63167 0 7.15652-.427255 10.46774-1.281764zm24.46031 5.981562v-34.821236c0-9.079157 6.83608-15.915228 15.91523-15.915228 2.67034 0 5.34068.32044 8.01102.854509 2.56353.534068 4.37936 2.67034 4.37936 5.233866 0 2.883968-2.13627 5.127054-5.23387 5.127054-.64088 0-.96132 0-1.81583-.213628-1.70901-.427254-3.63166-.854508-5.34068-.854508-2.67034 0-4.91342 2.243085-4.91342 4.913426v35.675745c0 3.097595-2.45672 5.554308-5.4475 5.554308-3.09759 0-5.55431-2.456713-5.55431-5.554308zm76.47855-32.578151v28.839675c0 2.990781-1.92265 5.554308-4.6998 6.51563-5.23387 1.815832-11.32224 2.777154-17.3038 2.777154-6.51563 0-11.64269-1.602204-15.27435-4.699799-3.63166-3.097594-5.55431-7.476952-5.55431-12.710819s1.92265-9.292784 5.55431-12.283565c3.63166-3.097595 8.75872-4.699799 15.27435-4.699799h11.0018v-3.738477c0-4.486171-3.31122-8.01102-8.86553-8.01102-5.02024 0-7.7974.640881-11.53587 2.883967-.85451.534068-2.02946.961323-2.99078.961323-2.88397 0-5.23387-2.136273-5.23387-4.806613 0-1.922645.85451-3.84529 2.67034-4.913426 5.76794-3.311222 10.78818-4.272544 18.47875-4.272544 11.96313 0 18.47876 8.651902 18.47876 18.158313zm-11.0018 26.596589v-12.710819h-11.0018c-9.29279 0-9.82686 5.020239-9.82686 6.836071 0 1.922645.53407 7.263325 9.82686 7.263325 3.63166 0 7.58376-.534068 11.0018-1.388577zm55.86352 5.981562v-30.228251c0-6.51563-3.84529-10.36092-10.46774-10.36092-3.52485 0-7.0497.534068-10.36092 1.388577v39.200594c0 3.097595-2.45671 5.554308-5.44749 5.554308-3.0976 0-5.55431-2.456713-5.55431-5.554308v-41.44368c0-2.990781 1.81583-5.554308 4.6998-6.51563 5.23387-1.815832 10.89499-2.777154 16.66292-2.777154 6.302 0 11.64269 2.029458 15.48798 5.981562 3.84529 3.84529 5.98156 9.18597 5.98156 15.38116v29.373742c0 3.097595-2.45672 5.554308-5.55431 5.554308s-5.44749-2.456713-5.44749-5.554308zm22.11041-15.915228v-13.458514c0-6.19519 2.02946-11.53587 5.87475-15.38116 3.95211-3.952104 9.29279-5.981562 15.48797-5.981562 5.23387 0 10.25411 1.174949 14.8471 3.418035 2.02946.961323 3.09759 2.883968 3.09759 4.913426 0 2.67034-2.24308 5.02024-5.23387 5.02024-.96132 0-1.81583-.320441-2.56352-.640882-3.0976-1.388577-6.62245-2.563526-10.1473-2.563526-6.51563 0-10.36092 3.84529-10.36092 10.36092v15.167532c0 6.622444 3.84529 10.360921 10.36092 10.360921 3.52485 0 7.37014-1.17495 10.46774-2.670341.74769-.427254 1.49539-.534068 2.3499-.534068 2.67034 0 5.12705 2.136272 5.12705 5.127054 0 2.029458-1.17495 3.952103-3.20441 4.913426-4.59298 2.243085-9.50641 3.418035-14.74028 3.418035-6.19518 0-11.53586-2.029458-15.48797-5.981562-3.84529-3.84529-5.87475-9.185971-5.87475-15.487974zm82.88736-1.49539h-24.88757c0 4.379358.7477 7.263325 2.13628 9.18597 1.81583 2.3499 4.59298 3.631663 8.22464 3.631663 4.05892 0 7.90421-1.17495 11.53587-2.777154.7477-.320441 1.49539-.534068 2.24309-.534068 2.67034 0 5.23387 2.243086 5.23387 5.02024 0 2.029459-.85451 3.84529-2.77716 4.806612-5.12705 2.456713-10.57455 3.631663-16.23567 3.631663-6.19519 0-11.53587-2.029458-15.48797-5.981562-3.84529-3.84529-5.87475-9.185971-5.87475-15.487974v-13.458514c0-6.19519 2.02946-11.53587 5.87475-15.38116 3.9521-3.952104 9.29278-5.981562 15.48797-5.981562 6.30201 0 11.64269 2.029458 15.48798 5.981562 3.84529 3.84529 5.98156 9.18597 5.98156 15.38116v5.020239c0 3.84529-3.0976 6.942885-6.94289 6.942885zm-24.88757-10.147293h20.82866c0-8.86553-3.63167-13.03126-10.46774-13.03126-6.72925 0-10.36092 4.058917-10.36092 13.03126z" fill="#2355a6"/><g fill="#00a57d" transform="translate(506.751285 187.555523)"><path d="m17.6242456 1.0681361c7.69058 0 14.0993966 2.34989942 18.7991954 6.94288465 4.5929852 4.59298525 7.0496983 11.10861545 7.0496983 18.69238175v23.6058078c0 7.5837663-2.4567131 14.0993965-7.0496983 18.5855681-4.6997988 4.5929853-11.1086154 7.0496983-18.7991954 7.0496983h-14.20621008c-1.92264498 0-3.41803552-1.4953906-3.41803552-3.4180355v-68.04026958c0-1.92264498 1.49539054-3.41803552 3.41803552-3.41803552zm0 4.05891718h-13.3517012v66.75850622h13.3517012c6.5156303 0 12.069938-2.1362722 15.8084143-5.8747485 3.84529-3.84529 5.767935-9.1859705 5.767935-15.7016007v-23.6058078c0-6.5156302-1.922645-11.9631243-5.6611214-15.7016007-3.8452899-3.84528993-9.3995976-5.87474852-15.9152279-5.87474852z"/><path d="m73.7013909 22.1104173c5.3406805 0 9.8268521 1.7090177 13.0312604 4.913426s4.913426 7.6905799 4.913426 13.0312604v6.4088166c0 1.922645-1.4953905 3.4180356-3.4180355 3.4180356h-28.3056066v9.1859704c0 8.4382752 5.2338669 14.0993965 13.7789557 14.0993965 4.4861716 0 8.758716-1.3885769 12.9244468-3.0975947.3204408-.1068136.6408816-.2136272.9613225-.2136272.9613225 0 2.0294586.8545089 2.0294586 1.922645 0 .8545089-.5340681 1.6022041-1.2817634 1.922645-4.5929852 2.0294586-9.5064113 3.3112219-14.6334645 3.3112219-5.3406805 0-9.8268521-1.7090178-13.0312604-4.9134261s-4.9134261-7.7973935-4.9134261-13.0312604v-19.0128226c0-5.3406805 1.7090178-9.8268521 4.9134261-13.0312604s7.6905799-4.913426 13.0312604-4.913426zm0 3.8452899c-8.5450888 0-13.7789557 5.2338669-13.7789557 13.7789557v6.302003h27.5579114v-6.302003c0-8.5450888-5.2338669-13.7789557-13.7789557-13.7789557z"/><path d="m164.386146 74.8763406v-36.3166274c0-6.9428847-5.661122-12.604006-12.604006-12.604006-4.592985 0-9.079157 1.7090178-12.497193 4.9134261v44.0072073c0 1.1749497-.961322 2.1362722-2.136272 2.1362722s-2.029458-.9613225-2.029458-2.1362722v-39.8414765c0-5.3406805-4.699799-9.0791569-11.108616-9.0791569-5.127053 0-9.613225.7476953-14.099396 2.456713v46.4639204c0 1.1749497-.961323 2.1362722-2.136273 2.1362722-1.068136 0-2.029458-.9613225-2.029458-2.1362722v-46.6775476c0-1.3885769.854509-2.6703402 2.243086-3.2044083 5.127053-1.9226449 10.254106-2.8839674 16.022041-2.8839674 4.913426 0 10.040479 1.6022041 13.031261 5.3406805 3.84529-3.5248492 9.18597-5.3406805 14.740278-5.3406805 9.506411 0 16.769737 7.2633254 16.769737 16.7697367v35.9961866c0 1.1749497-.961323 2.1362722-2.029459 2.1362722-1.17495 0-2.136272-.9613225-2.136272-2.1362722z"/><path d="m201.023214 22.1104173c5.554308 0 10.36092 1.8158313 13.778956 5.2338668 3.418035 3.4180356 5.127053 8.1178344 5.127053 13.7789557v16.8765504c0 5.6611213-1.709018 10.3609202-5.127053 13.7789557-3.418036 3.4180355-8.224648 5.2338669-13.778956 5.2338669-5.661121 0-10.36092-1.8158314-13.778956-5.2338669-3.418035-3.4180355-5.233867-8.1178344-5.233867-13.7789557v-16.8765504c0-5.6611213 1.815832-10.3609201 5.233867-13.7789557 3.418036-3.4180355 8.117835-5.2338668 13.778956-5.2338668zm0 3.8452899c-9.185971 0-14.847092 5.6611213-14.847092 14.8470918v17.517432c0 9.1859705 5.661121 14.8470918 14.847092 14.8470918 9.079157 0 14.740278-5.6611213 14.740278-14.8470918v-17.517432c0-8.9723432-5.447494-14.8470918-14.740278-14.8470918z"/><path d="m231.67872 59.0679263v-19.0128226c0-5.3406805 1.709018-9.8268521 4.913426-13.0312604s7.69058-4.913426 13.03126-4.913426c4.699799 0 9.185971 1.1749497 13.351702 3.0975947.747695.3204408 1.174949 1.068136 1.174949 1.8158313 0 1.0681361-.854508 1.922645-2.029458 1.922645-.320441 0-.534068-.1068136-.854509-.2136272-3.738476-1.4953906-7.583766-2.7771539-11.642684-2.7771539-8.545088 0-13.778955 5.5543077-13.778955 14.0993965v19.0128226c0 8.4382752 5.233867 14.0993965 13.778955 14.0993965 4.058918 0 8.011021-1.0681361 11.642684-2.8839674.213627-.1068137.534068-.2136273.854509-.2136273.961322 0 2.029458.8545089 2.029458 2.0294586 0 .7476953-.427254 1.388577-1.174949 1.8158314-4.058917 2.1362722-8.651903 3.0975947-13.351702 3.0975947-5.34068 0-9.826852-1.7090178-13.03126-4.9134261s-4.913426-7.7973935-4.913426-13.0312604z"/><path d="m275.899555 74.8763406v-39.3074085c0-8.3314616 5.554307-13.4585148 12.390378-13.4585148 2.456713 0 4.913426.2136272 7.263326.7476952.961322.2136273 1.709018.9613225 1.709018 2.1362722 0 .9613225-.961323 1.8158314-1.922645 1.8158314-1.495391 0-2.670341-.8545089-7.049699-.8545089-4.486171 0-8.224648 3.3112219-8.224648 9.2927841v39.6278493c0 1.1749497-.961322 2.1362722-2.136272 2.1362722-1.068136 0-2.029458-.9613225-2.029458-2.1362722z"/><path d="m322.577102 22.1104173c9.185971 0 16.983364 5.0202396 16.983364 14.6334645v34.3939824c0 1.4953906-.961322 2.7771539-2.349899 3.3112219-4.592986 1.7090178-10.254107 2.5635267-14.633465 2.5635267-6.408817 0-11.322243-1.4953906-14.526651-4.379358-2.883967-2.6703403-4.379358-6.5156302-4.379358-11.2154291 0-4.913426 1.495391-8.5450888 4.379358-11.215429 3.204408-2.8839675 8.117834-4.2725444 14.526651-4.2725444h12.817633v-8.1178344c0-8.0110207-5.661121-11.8563107-12.497192-11.8563107-4.379358 0-8.651903 1.2817633-12.817633 3.6316628-.320441.2136272-.854509.3204408-1.17495.3204408-.961322 0-1.922645-.7476953-1.922645-1.922645 0-.7476953.320441-1.3885769 1.068136-1.8158314 5.127053-2.8839674 9.506411-4.0589171 14.526651-4.0589171zm12.817633 27.6647249h-12.817633c-5.34068 0-9.292784 1.0681361-11.749497 3.3112219-2.029459 1.8158314-2.990781 4.5929853-2.990781 8.3314616 0 3.6316628.961322 6.5156302 2.990781 8.3314616 2.456713 2.2430858 6.408817 3.4180355 11.749497 3.4180355 3.84529 0 8.758716-.9613225 12.817633-2.2430858z"/><path d="m355.36888 63.4472843v-61.3110121c0-1.17494971.961323-2.1362722 2.029459-2.1362722 1.17495 0 2.136272.96132249 2.136272 2.1362722v21.0422812h13.778956c1.17495 0 2.029458.7476952 2.029458 1.9226449s-.854508 1.922645-2.029458 1.922645h-13.778956v36.423441c0 5.9815622 3.524849 9.7200385 8.224648 9.7200385 1.815831 0 4.592985-.534068 5.661121-.534068.961323 0 1.922645.7476952 1.922645 1.922645 0 .9613224-.640881 1.7090177-1.709017 1.9226449-1.922645.3204409-3.84529.5340681-5.874749.5340681-7.263325 0-12.390379-5.1270533-12.390379-13.5653285z"/><path d="m388.267472 74.8763406v-50.7364647c0-1.0681361.961323-2.0294586 2.136272-2.0294586 1.068136 0 2.029459.9613225 2.029459 2.0294586v50.7364647c0 1.1749497-.961323 2.1362722-2.029459 2.1362722-1.174949 0-2.136272-.9613225-2.136272-2.1362722z"/><path d="m390.403744 6.62244382c-1.815831 0-3.311222-1.49539054-3.311222-3.31122191s1.495391-3.31122191 3.311222-3.31122191c1.815832 0 3.204409 1.49539054 3.204409 3.31122191s-1.388577 3.31122191-3.204409 3.31122191z"/><path d="m439.217564 75.9444767h-31.08276c-1.495391 0-2.777154-1.2817633-2.777154-2.7771539 0-.534068.106813-1.0681361.427254-1.4953905l30.121438-44.5412754h-28.198793c-1.281763 0-2.029458-.8545089-2.029458-2.0294586s.961322-1.9226449 2.136272-1.9226449h30.335065c1.495391 0 2.777154 1.1749497 2.777154 2.6703402 0 .6408817-.213627 1.1749497-.534068 1.6022042l-30.121438 44.5412753h28.946488c1.068136 0 2.029459.8545089 2.029459 2.0294586 0 1.0681361-.961323 1.922645-2.029459 1.922645z"/><path d="m454.17147 74.8763406v-50.7364647c0-1.0681361.961322-2.0294586 2.136272-2.0294586 1.068136 0 2.029458.9613225 2.029458 2.0294586v50.7364647c0 1.1749497-.961322 2.1362722-2.029458 2.1362722-1.17495 0-2.136272-.9613225-2.136272-2.1362722z"/><path d="m456.307742 6.62244382c-1.815832 0-3.311222-1.49539054-3.311222-3.31122191s1.49539-3.31122191 3.311222-3.31122191c1.815831 0 3.204408 1.49539054 3.204408 3.31122191s-1.388577 3.31122191-3.204408 3.31122191z"/><path d="m507.685088 74.8763406v-35.1416777c0-8.5450888-5.233867-13.7789557-13.778956-13.7789557-4.806612 0-9.506411.7476953-13.778955 2.1362722v46.7843612c0 1.1749497-.961323 2.1362722-2.136272 2.1362722-1.068137 0-2.029459-.9613225-2.029459-2.1362722v-46.9979884c0-1.3885769.961322-2.7771539 2.349899-3.2044083 4.913426-1.6022041 10.147293-2.5635266 15.594787-2.5635266 5.340681 0 9.933666 1.6022041 13.138074 4.8066124 3.204409 3.2044083 4.806613 7.7973935 4.806613 13.138074v34.8212369c0 1.1749497-.961323 2.1362722-2.029459 2.1362722-1.174949 0-2.136272-.9613225-2.136272-2.1362722z"/><path d="m543.25402 22.1104173c5.447494 0 10.681361.9613225 15.594787 2.5635266 1.388577.4272544 2.3499 1.8158314 2.3499 3.2044083v53.940873c0 5.3406805-1.709018 9.8268521-4.913426 13.0312604-3.204409 3.2044083-7.69058 4.9134261-13.031261 4.9134261-4.913426 0-10.040479-.6408817-14.20621-2.9907811-.747695-.4272544-1.17495-1.1749497-1.17495-1.922645 0-1.2817633 1.068137-1.9226449 2.029459-1.9226449.320441 0 .534068.1068136.854509.2136272 3.952103 1.6022041 8.117834 2.7771538 12.497192 2.7771538 8.545089 0 13.778956-5.5543077 13.778956-14.0993965v-9.292784c-3.952104 2.8839674-8.758716 4.4861716-13.778956 4.4861716-5.34068 0-9.933665-1.6022042-13.138074-4.8066125-3.204408-3.2044083-4.806612-7.9042071-4.806612-13.138074v-19.0128226c0-5.3406805 1.602204-9.9336657 4.806612-13.138074 3.204409-3.2044083 7.797394-4.8066124 13.138074-4.8066124zm0 3.8452899c-8.545089 0-13.778955 5.2338669-13.778955 13.7789557v19.6537042c0 8.4382752 5.233866 13.7789557 13.778955 13.7789557 5.02024 0 9.826852-1.7090177 13.778956-5.3406805v-39.7346629c-4.379358-1.3885769-8.972343-2.1362722-13.778956-2.1362722z"/></g></g></svg>
